<?xml version="1.0" encoding="UTF-8"?>
<svg version="1.1" xmlns="http://www.w3.org/2000/svg" width="168" height="96">
<path d="M0 0 C1.65 0.33 3.3 0.66 5 1 C5.66 25.75 6.32 50.5 7 76 C13.93 76 20.86 76 28 76 C26.68 74.35 25.36 72.7 24 71 C20.16373474 65.38261159 20.14018343 59.56436885 21 53 C23.54822363 44.57670523 28.36176427 40.15501276 35.8359375 35.97265625 C43.37871321 32.51952897 52.60633878 32.80775516 60.3125 35.5625 C67.38650566 38.84069775 73.22721961 43.65565034 76.3828125 50.90234375 C78.62191914 58.51247203 76.91054646 67.25238963 73.375 74.1875 C68.32649778 80.16598947 62.85541664 84.04689661 55 85 C45.96400378 85.57371405 38.6391237 83.87603641 31 79 C30.67 80.32 30.34 81.64 30 83 C26.04907941 83.07409401 22.09842706 83.12857406 18.14697266 83.16479492 C16.14080626 83.18732251 14.13483474 83.2254357 12.12890625 83.26367188 C10.87207031 83.27333984 9.61523438 83.28300781 8.3203125 83.29296875 C7.15773926 83.3086792 5.99516602 83.32438965 4.79736328 83.34057617 C3.8742334 83.22818604 2.95110352 83.1157959 2 83 C-3.27924851 75.08112723 -1.14757565 62.36170528 -1.1328125 53.0859375 C-1.13348752 51.57947779 -1.13445919 50.07301818 -1.13571167 48.56655884 C-1.13717481 45.4351496 -1.13507598 42.30376915 -1.13037109 39.17236328 C-1.12462497 35.1517176 -1.12799203 31.13113797 -1.13394356 27.11049461 C-1.13754473 24.01196792 -1.1364135 20.91345711 -1.13381577 17.81492996 C-1.13314781 16.33089821 -1.13397037 14.84686502 -1.13629532 13.36283493 C-1.13881984 11.30223458 -1.13498646 9.24174442 -1.12939453 7.18115234 C-1.12859894 6.00853851 -1.12780334 4.83592468 -1.12698364 3.6277771 C-1 1 -1 1 0 0 Z M30.12890625 50.31640625 C27.53607593 54.1832224 27.30258892 58.51091718 28 63 C30.42830169 68.9237494 34.39916243 72.99998333 40 76 C46.87427691 78.85347344 53.49724769 78.29731567 60.375 75.75 C64.2868959 73.1420694 66.42278765 69.86581853 69 66 C70.02734146 59.27449717 68.99913896 53.52496429 65 48 C61.20961997 43.91885109 56.94153705 41.37813481 51.38671875 40.6640625 C41.81620229 40.52556009 36.19995019 42.88888927 30.12890625 50.31640625 Z " fill="#000000" transform="translate(5,5)"/>
<path d="M0 0 C2.00720923 0.28674418 4.0085944 0.61866701 6 1 C6.33 4.3 6.66 7.6 7 11 C8.65 10.67 10.3 10.34 12 10 C12.33 7.03 12.66 4.06 13 1 C14.32 0.67 15.64 0.34 17 0 C18.75 1.0625 18.75 1.0625 20 3 C20.125 6.125 20.125 6.125 20 9 C21.58272601 10.58272601 23.38034003 10.34735747 25.5625 10.5625 C26.38878906 10.64628906 27.21507812 10.73007812 28.06640625 10.81640625 C28.70449219 10.87699219 29.34257813 10.93757813 30 11 C30.38218767 12.65614657 30.71395102 14.32457024 31 16 C29.41727399 17.58272601 27.61965997 17.34735747 25.4375 17.5625 C24.19806641 17.68818359 24.19806641 17.68818359 22.93359375 17.81640625 C22.29550781 17.87699219 21.65742187 17.93757813 21 18 C21.08564209 19.04752441 21.17128418 20.09504883 21.25952148 21.17431641 C21.58266554 25.12917358 21.90486547 29.08410724 22.22680664 33.0390625 C22.36522832 34.73797613 22.50389271 36.43687001 22.64282227 38.13574219 C23.04035337 42.99796375 23.43269087 47.86055329 23.8180542 52.72375488 C23.99329557 54.91612384 24.17447963 57.10794475 24.35595703 59.29980469 C24.50653564 61.20487793 24.50653564 61.20487793 24.66015625 63.1484375 C24.79562866 64.817854 24.79562866 64.817854 24.93383789 66.52099609 C24.96658813 67.74810303 24.96658813 67.74810303 25 69 C24 70 24 70 21.4375 70.0625 C20.633125 70.041875 19.82875 70.02125 19 70 C16.94628845 65.688159 16.4953744 61.50391016 16.1484375 56.8046875 C16.08467926 56.01659698 16.02092102 55.22850647 15.95523071 54.41653442 C15.82217385 52.7509686 15.69297168 51.08509089 15.56738281 49.41894531 C15.37715273 46.90346628 15.17399843 44.38929329 14.96875 41.875 C14.30825298 33.57275635 13.76877378 25.335822 14 17 C11.69 17 9.38 17 7 17 C7.12117188 18.25546631 7.24234375 19.51093262 7.3671875 20.80444336 C7.81875149 25.49495638 8.26468554 30.18599097 8.70898438 34.87719727 C8.90147631 36.90143078 9.09546269 38.92552279 9.29101562 40.94946289 C9.57301502 43.87089025 9.84950587 46.79279661 10.125 49.71484375 C10.21249512 50.60896469 10.29999023 51.50308563 10.39013672 52.42430115 C10.90700393 57.97623629 11.07906001 63.42379853 11 69 C8.625 69.625 8.625 69.625 6 70 C3.16449965 67.16449965 3.51612718 64.96972545 3.18359375 61 C3.12243378 60.29583954 3.0612738 59.59167908 2.9982605 58.86618042 C2.80221271 56.57811833 2.61951212 54.28921778 2.4375 52 C2.30738659 50.44282908 2.1767716 48.88569999 2.0456543 47.32861328 C1.17904677 36.89604719 0.43212832 26.46048546 0 16 C-3.63 16 -7.26 16 -11 16 C-11.33 14.68 -11.66 13.36 -12 12 C-10.33657163 10.33657163 -8.2174291 10.63951903 -5.9375 10.4375 C-5.01839844 10.35371094 -4.09929687 10.26992188 -3.15234375 10.18359375 C-2.44207031 10.12300781 -1.73179688 10.06242187 -1 10 C-1.01160156 9.36191406 -1.02320312 8.72382813 -1.03515625 8.06640625 C-1.04417969 7.24011719 -1.05320312 6.41382813 -1.0625 5.5625 C-1.07410156 4.73878906 -1.08570312 3.91507813 -1.09765625 3.06640625 C-1 1 -1 1 0 0 Z " fill="#000000" transform="translate(85,19)"/>
<path d="M0 0 C0.6909375 -0.020625 1.381875 -0.04125 2.09375 -0.0625 C9.60742376 -0.11899379 15.2789959 2.67646495 21.25 7.25 C27.95009722 13.95009722 29.74339255 19.73511142 29.75195312 29.14746094 C29.58615755 34.63629916 28.5326385 38.2864868 25.1015625 42.546875 C18.76987375 48.37096001 11.45254121 49.56450847 3.125 49.46484375 C-4.1344908 48.92235463 -11.12761265 45.89191653 -16.75 41.25 C-16.75 40.59 -16.75 39.93 -16.75 39.25 C-17.41 39.25 -18.07 39.25 -18.75 39.25 C-23.95183064 32.71935281 -25.38733284 26.53532691 -24.75 18.25 C-23.19263265 11.76096938 -20.33360739 7.04272086 -14.6875 3.4375 C-9.79911649 0.53824759 -5.61000091 0.04094891 0 0 Z M-15.62109375 14.53125 C-18.18019535 18.42746005 -18.56103871 22.75029485 -17.75 27.25 C-14.2286825 34.80825648 -9.03104717 39.47296155 -1.4375 42.625 C5.30816618 43.76833325 10.95285705 43.57885839 16.6875 39.5625 C19.95104869 36.76800386 22.03404467 34.46531181 23.25 30.25 C23.69989185 23.56910602 22.16764233 19.02535856 17.859375 13.9375 C12.87431663 8.7104485 8.61226853 6.52115069 1.375 5.9375 C-6.1480347 6.19592486 -10.92476341 8.69602757 -15.62109375 14.53125 Z " fill="#000000" transform="translate(134.75,40.75)"/>
</svg>
