<?xml version="1.0" encoding="UTF-8"?>
<svg version="1.1" xmlns="http://www.w3.org/2000/svg" width="452" height="102">
<path d="M0 0 C2.375 0.5625 2.375 0.5625 5 2 C6.3125 5.625 6.3125 5.625 7 9 C11.455 9.99 11.455 9.99 16 11 C16 12.32 16 13.64 16 15 C13.36 15.33 10.72 15.66 8 16 C8.66 20.29 9.32 24.58 10 29 C10.33 29 10.66 29 11 29 C11.20625 28.113125 11.4125 27.22625 11.625 26.3125 C13.27812767 22.32996515 15.19554804 19.95702262 19 18 C25.98930389 16.20007893 32.61198181 16.73795961 39.015625 20.0390625 C42.30087978 22.1090401 43.69417262 23.08745056 44.96875 26.890625 C45 30 45 30 43.19140625 32.34375 C41.89009766 33.41109375 41.89009766 33.41109375 40.5625 34.5 C39.64726562 35.26441406 38.73203125 36.02882812 37.7890625 36.81640625 C34.73349109 39.20865334 31.66616594 41.56977013 28.49609375 43.80859375 C26.85101934 44.94705759 26.85101934 44.94705759 26 47 C33.05672974 48.11631761 33.05672974 48.11631761 40 47.0625 C42.92826334 44.04272843 43.75289604 41.00386009 45 37 C46.65 37.33 48.3 37.66 50 38 C50.52547667 42.99202833 50.59933546 45.88656421 47.375 49.875 C43.56339606 53.79372161 40.12455656 54.75485886 34.75 55.375 C25.81661726 54.48166173 19.74328882 50.7702345 14 44 C14 45.32 14 46.64 14 48 C14 50 14 52 14 54 C12.02 53.67 10.04 53.34 8 53 C7.86722656 52.39671875 7.73445313 51.7934375 7.59765625 51.171875 C7.42105469 50.37265625 7.24445313 49.5734375 7.0625 48.75 C6.88847656 47.96109375 6.71445312 47.1721875 6.53515625 46.359375 C6.052444 44.23121297 5.53836822 42.11467158 5 40 C5.103125 41.051875 5.20625 42.10375 5.3125 43.1875 C5 47 5 47 3 49.9375 C-0.15743281 52.10823506 -2.16944722 52.67613666 -6.00390625 52.4296875 C-10.66203788 51.42695858 -13.43403685 48.84894472 -16 45 C-16.53625 45.763125 -17.0725 46.52625 -17.625 47.3125 C-20.43389089 50.4909818 -21.9556695 51.65188983 -26 53 C-30.34576689 53.23826612 -34.65273371 53.17414865 -39 53 C-38.7834375 54.14597656 -38.566875 55.29195312 -38.34375 56.47265625 C-38.06217548 58.00254447 -37.7809437 59.53249581 -37.5 61.0625 C-37.35691406 61.81466797 -37.21382813 62.56683594 -37.06640625 63.34179688 C-36.223569 67.97740175 -35.84984738 72.2889615 -36 77 C-38.375 77.1875 -38.375 77.1875 -41 77 C-43.36199417 73.45700875 -43.78563397 70.28861861 -44.40234375 66.17578125 C-44.58719078 65.00718819 -44.58719078 65.00718819 -44.77577209 63.81498718 C-45.170001 61.3151938 -45.55423167 58.81399519 -45.9375 56.3125 C-46.44317409 53.05804995 -46.95334131 49.80431979 -47.46484375 46.55078125 C-47.58951019 45.75100861 -47.71417664 44.95123596 -47.84262085 44.12722778 C-48.88984062 37.48866106 -50.13216469 30.89880219 -51.45141602 24.30932617 C-51.9251343 21.45162644 -52.11478153 18.88529919 -52 16 C-48.59904027 14.86634676 -46.467048 15.29083109 -43 16 C-41.741875 15.95875 -40.48375 15.9175 -39.1875 15.875 C-31.63579475 15.80389166 -26.406217 18.99924928 -21 24 C-20.01 20.535 -20.01 20.535 -19 17 C-16.625 17.375 -16.625 17.375 -14 19 C-12.83854216 22.22777238 -12.5065095 25.61754671 -12 29 C-11.51931542 31.5037856 -11.01875267 34.00382379 -10.5 36.5 C-10.2628125 37.6859375 -10.025625 38.871875 -9.78125 40.09375 C-9.23228706 43.10057869 -9.23228706 43.10057869 -7 45 C-5.68 45 -4.36 45 -3 45 C-2.77871885 38.47220597 -3.44348334 32.4499708 -4.5625 26.015625 C-4.95837656 23.28690443 -5.08150539 20.75080684 -5 18 C-0.125 18.875 -0.125 18.875 1 20 C1 18.35 1 16.7 1 15 C-0.670625 15.061875 -0.670625 15.061875 -2.375 15.125 C-6 15 -6 15 -8 13 C-7.625 10.875 -7.625 10.875 -7 9 C-5.02 8.67 -3.04 8.34 -1 8 C-1.020625 6.865625 -1.04125 5.73125 -1.0625 4.5625 C-1 1 -1 1 0 0 Z M-44 23 C-44.3049145 28.39837271 -43.53956628 33.12055216 -42.25 38.3125 C-42.09273438 39.02728516 -41.93546875 39.74207031 -41.7734375 40.47851562 C-40.82007918 44.5164481 -40.82007918 44.5164481 -38.07421875 47.4609375 C-33.78372356 48.57598145 -30.24926001 48.55522667 -26.1875 46.75 C-23.7725394 44.81803152 -22.87769565 43.95224902 -22 41 C-21.54010817 36.2477844 -21.47921149 34.00300009 -23.6875 29.75 C-26.42686493 26.49237684 -29.17742722 23.91128639 -33 22 C-34.6853196 21.90465746 -36.37449266 21.87014242 -38.0625 21.875 C-38.96097656 21.87242188 -39.85945313 21.86984375 -40.78515625 21.8671875 C-42.97378893 21.75261777 -42.97378893 21.75261777 -44 23 Z M19 27 C16.66090693 30.5086396 16.58708943 31.87089433 17 36 C18.38885248 38.81780534 18.38885248 38.81780534 20 41 C24.10365915 38.69311926 27.70875702 35.94572774 31.3125 32.9375 C32.13717773 32.26750977 32.13717773 32.26750977 32.97851562 31.58398438 C34.35947131 30.436333 35.68502553 29.22269556 37 28 C37 27.34 37 26.68 37 26 C29.80368229 21.88781845 25.58808565 21.75947733 19 27 Z M11 37 C12 39 12 39 12 39 Z " fill="#000000" transform="translate(386,25)"/>
<path d="M0 0 C4.01780372 2.44592612 7.66404134 5.29204476 11.2265625 8.35546875 C10.8965625 9.67546875 10.5665625 10.99546875 10.2265625 12.35546875 C8.1015625 12.66796875 8.1015625 12.66796875 5.2265625 12.35546875 C3.80558375 11.16581212 2.3884558 9.97061428 1.0078125 8.734375 C-4.80317393 4.23595787 -11.78891745 2.60240841 -19.03125 2.91015625 C-25.18649493 3.90972594 -30.74746188 6.63831817 -34.8359375 11.41796875 C-38.18808323 16.89353775 -38.38391701 23.64607896 -37.36328125 29.84765625 C-34.72762221 38.96987736 -29.36904465 44.53046502 -21.23828125 49.12890625 C-14.319442 52.57187856 -8.48775834 53.15286249 -0.7734375 52.35546875 C2.26207679 51.31652785 4.48790358 50.07384298 7.2265625 48.35546875 C7.2265625 46.25569274 7.21100985 44.15224752 7.05078125 42.05859375 C6.74189603 36.51631031 7.2633653 32.55545306 10.5546875 27.98828125 C14.28871478 24.3414976 18.60520226 23.52243437 23.6796875 23.19921875 C30.52820822 23.45765349 35.85230715 26.20075596 41.2265625 30.35546875 C41.8865625 31.34546875 42.5465625 32.33546875 43.2265625 33.35546875 C43.2265625 30.71546875 43.2265625 28.07546875 43.2265625 25.35546875 C46.51903806 24.30926156 49.06657526 24.42678464 52.4765625 24.85546875 C56.03737012 25.24900674 59.02536609 25.35175167 62.5390625 24.66796875 C66.2265625 24.35546875 66.2265625 24.35546875 69.5390625 25.66796875 C76.86152332 32.99042957 78.03583664 49.28044739 78.30859375 59.3984375 C78.26798828 60.36716797 78.26798828 60.36716797 78.2265625 61.35546875 C76.5765625 61.35546875 74.9265625 61.35546875 73.2265625 61.35546875 C70.98125078 55.41313514 70.23847795 49.42076034 69.37109375 43.16796875 C69.25121094 42.35070313 69.13132812 41.5334375 69.0078125 40.69140625 C68.90533203 39.9545459 68.80285156 39.21768555 68.69726562 38.45849609 C68.16864623 36.09670797 67.57820651 34.37139634 66.2265625 32.35546875 C64.17655379 31.55017986 64.17655379 31.55017986 62.2265625 31.35546875 C62.34773438 32.08660889 62.46890625 32.81774902 62.59375 33.57104492 C63.14214224 36.89435462 63.68441225 40.2186353 64.2265625 43.54296875 C64.41734375 44.69345703 64.608125 45.84394531 64.8046875 47.02929688 C64.98515625 48.14111328 65.165625 49.25292969 65.3515625 50.3984375 C65.51914062 51.4196167 65.68671875 52.4407959 65.859375 53.49291992 C66.20070957 56.15392247 66.29540952 58.67688943 66.2265625 61.35546875 C64.5765625 61.35546875 62.9265625 61.35546875 61.2265625 61.35546875 C59.08396966 55.69979576 58.13501816 49.91326977 57.1015625 43.98046875 C56.91980469 42.95824219 56.73804688 41.93601563 56.55078125 40.8828125 C56.10535851 38.37437916 55.66407786 35.86529121 55.2265625 33.35546875 C53.2465625 32.86046875 53.2465625 32.86046875 51.2265625 32.35546875 C51.86777524 41.4168172 52.96136792 50.3639888 54.2265625 59.35546875 C52.4140625 59.98046875 52.4140625 59.98046875 50.2265625 60.35546875 C48.7415625 59.36546875 48.7415625 59.36546875 47.2265625 58.35546875 C46.5390625 54.73046875 46.5390625 54.73046875 46.2265625 51.35546875 C45.8346875 52.09796875 45.4428125 52.84046875 45.0390625 53.60546875 C42.43948985 57.54964794 39.71313865 59.85994337 35.2265625 61.35546875 C28.27329087 61.97629657 22.51049592 60.39084208 16.2265625 57.35546875 C14.40234375 55.71875 14.40234375 55.71875 13.2265625 54.35546875 C12.5871875 54.62359375 11.9478125 54.89171875 11.2890625 55.16796875 C9.773125 55.75578125 9.773125 55.75578125 8.2265625 56.35546875 C7.59492188 56.61972656 6.96328125 56.88398437 6.3125 57.15625 C-3.24640188 60.82339236 -12.42792824 60.22365757 -21.953125 56.6796875 C-31.47654823 52.20816329 -40.16638046 43.75311517 -44.1171875 33.91015625 C-45.90634993 26.94520252 -45.88620801 18.81647904 -42.8671875 12.19140625 C-33.87518763 -2.90230781 -15.8455177 -7.54159519 0 0 Z M14.4140625 33.41796875 C12.70611053 37.64290258 13.12898026 40.98832817 14.2265625 45.35546875 C16.67846026 50.89888977 20.42548283 53.0747827 25.76171875 55.50390625 C29.0622743 56.64419327 30.97393333 56.64139191 34.2265625 55.35546875 C37.72386182 53.28888279 39.01759473 51.80823226 40.7265625 48.10546875 C41.35752172 43.37327457 40.73553967 40.40590901 38.2265625 36.35546875 C35.23200139 33.16771015 31.74025009 29.56413394 27.203125 29.1875 C26.42710937 29.18105469 25.65109375 29.17460938 24.8515625 29.16796875 C24.08070313 29.15378906 23.30984375 29.13960937 22.515625 29.125 C18.86078991 29.49297828 16.82211578 30.67777019 14.4140625 33.41796875 Z " fill="#000000" transform="translate(258.7734375,15.64453125)"/>
<path d="M0 0 C1.32 0.33 2.64 0.66 4 1 C6.20028739 13.96702701 7.82669795 26.90042766 9 40 C7.68 40.33 6.36 40.66 5 41 C4.01 38.525 4.01 38.525 3 36 C1.329375 36.99 1.329375 36.99 -0.375 38 C-6.06557255 40.81015928 -11.42641877 41.09612194 -17.49609375 39.234375 C-21.73867186 37.47882544 -25.03667097 35.60753099 -28 32 C-28.33 34.64 -28.66 37.28 -29 40 C-30.65 39.67 -32.3 39.34 -34 39 C-34.06731323 38.11646851 -34.06731323 38.11646851 -34.13598633 37.21508789 C-34.34981994 34.49649837 -34.58105974 31.77964505 -34.8125 29.0625 C-34.88275391 28.13630859 -34.95300781 27.21011719 -35.02539062 26.25585938 C-35.54944808 20.2816044 -36.36544534 14.45734852 -39 9 C-41.79870027 7.60064987 -43.90498792 7.74734595 -47 8 C-48.79935852 9.06346233 -48.79935852 9.06346233 -50 11 C-50.40470095 13.92039251 -50.40470095 13.92039251 -50.25 17.25 C-50.22421875 18.48492187 -50.1984375 19.71984375 -50.171875 20.9921875 C-49.92672448 27.33781445 -49.49651463 33.66943842 -49 40 C-50.65 39.67 -52.3 39.34 -54 39 C-54 37.35 -54 35.7 -54 34 C-54.54269531 34.34933594 -55.08539063 34.69867188 -55.64453125 35.05859375 C-56.35996094 35.51363281 -57.07539063 35.96867187 -57.8125 36.4375 C-58.87404297 37.11619141 -58.87404297 37.11619141 -59.95703125 37.80859375 C-64.49602648 40.45561774 -68.89100281 40.48616501 -74 40 C-77.6875 38.6875 -77.6875 38.6875 -81 37 C-82.134375 36.443125 -83.26875 35.88625 -84.4375 35.3125 C-85.283125 34.879375 -86.12875 34.44625 -87 34 C-87.78375 34.804375 -88.5675 35.60875 -89.375 36.4375 C-93.59316125 40.55522884 -96.52680337 40.27851515 -102.234375 40.21875 C-106.82644012 39.85553581 -109.70766959 38.33540809 -112.875 35.0625 C-114 33 -114 33 -114 29 C-112.02 29.33 -110.04 29.66 -108 30 C-108 30.66 -108 31.32 -108 32 C-104.18538362 33.79511359 -101.21411291 34.53797186 -97 34 C-94.41666667 32.58333333 -94.41666667 32.58333333 -93 30 C-92.51417105 26.4769504 -92.51417105 26.4769504 -94 23 C-97.03204881 20.37359944 -100.48901929 18.67124006 -104.13671875 17.05078125 C-106 16 -106 16 -108 13 C-107.88962892 6.04662226 -107.88962892 6.04662226 -104.875 2.5 C-101.24789742 0.60759865 -99.04593864 0.49425767 -95 1 C-92.0625 2.1875 -92.0625 2.1875 -90 4 C-89.6875 6.6875 -89.6875 6.6875 -90 9 C-92.42501634 8.52846905 -94.81107261 8.05397926 -97.1875 7.375 C-99.08903493 6.78653641 -99.08903493 6.78653641 -101 8 C-101 9.65 -101 11.3 -101 13 C-96.545 13.99 -96.545 13.99 -92 15 C-91.731875 14.39671875 -91.46375 13.7934375 -91.1875 13.171875 C-88.73614974 8.17241065 -86.62854875 4.74649353 -81.37109375 2.58984375 C-74.86281846 0.97081645 -68.39181521 0.95787154 -62.3125 3.9375 C-59 6 -59 6 -58 7 C-57.67 5.35 -57.34 3.7 -57 2 C-54.29057607 1.89138167 -51.585561 1.81241423 -48.875 1.75 C-48.11445313 1.71648438 -47.35390625 1.68296875 -46.5703125 1.6484375 C-41.20507844 1.55593346 -38.26936853 2.45954805 -34 6 C-32.125 8.25 -32.125 8.25 -31 10 C-30.113125 9.21625 -29.22625 8.4325 -28.3125 7.625 C-23.61394518 3.7678143 -19.60850171 2.56204044 -13.55859375 2.6640625 C-8.78596714 3.29069744 -4.4169806 5.15064738 0 7 C0 4.69 0 2.38 0 0 Z M-83 11 C-85.11204375 13.9131638 -86.38444707 16.46553481 -87 20 C-86.06548365 25.77063848 -83.16692331 29.29109462 -78.71875 32.87109375 C-74.91238608 35.37118278 -71.42569204 35.36276164 -67 35 C-62.91662291 33.62139195 -59.83158701 31.96152248 -57 28.6875 C-55.43567519 24.48337708 -55.13067403 21.14916698 -56.84375 16.9140625 C-59.7554061 11.62193081 -63.19411884 8.7170813 -69 7 C-74.72860792 5.9682057 -78.57959267 7.19639369 -83 11 Z M-22 9 C-25.47990512 12.23712104 -27.81493075 15.42691137 -28.375 20.1875 C-27.89755705 25.0415033 -26.37954915 27.56071135 -23 31 C-18.39408675 34.70038176 -13.85494945 35.90706429 -8 36 C-3.3459304 34.38897591 -0.43413657 32.30654931 2 28 C2.85063035 23.30417329 2.48375626 19.94959562 0.3125 15.6875 C-5.8437279 8.53296487 -12.84557068 4.85459804 -22 9 Z " fill="#000000" transform="translate(192,34)"/>
<path d="M0 0 C3.42497262 0.45079896 6.61426378 0.53488731 10.0625 0.375 C16.72917304 0.31288814 21.00322841 2.82063542 25.9375 7.125 C29.17419341 10.95018312 29.11460565 13.90417488 29.0625 18.75 C29.05347656 19.83667969 29.04445312 20.92335938 29.03515625 22.04296875 C29.02355469 22.87441406 29.01195312 23.70585938 29 24.5625 C29.86882813 24.79324219 30.73765625 25.02398437 31.6328125 25.26171875 C38.20484529 27.12158933 43.19716146 28.62243751 48 33.5625 C47.90625 35.7890625 47.90625 35.7890625 47 38.5625 C44.83611038 40.24486473 42.85155729 41.5807739 40.5 42.9375 C39.22323566 43.71412898 37.9484965 44.49409689 36.67578125 45.27734375 C36.05010254 45.66003418 35.42442383 46.04272461 34.77978516 46.43701172 C27.94351358 50.57160151 27.94351358 50.57160151 23 56.5625 C28.45821511 58.12559162 34.37204208 58.51812106 39.75 56.5625 C42.53630082 54.08578816 44.50743574 51.3013464 46.5703125 48.20703125 C47.04210938 47.66433594 47.51390625 47.12164062 48 46.5625 C48.99 46.5625 49.98 46.5625 51 46.5625 C50.67096972 40.18612013 50.24206561 35.20087498 47 29.5625 C47 28.5725 47 27.5825 47 26.5625 C50.71599191 26.36163557 51.77208445 26.4105563 55 28.5625 C55.721875 28.27375 56.44375 27.985 57.1875 27.6875 C60.96816517 26.17523393 63.94391831 26.42500571 68 26.5625 C68.495 28.5425 68.495 28.5425 69 30.5625 C68.30132812 30.73265625 67.60265625 30.9028125 66.8828125 31.078125 C65.97273438 31.32046875 65.06265625 31.5628125 64.125 31.8125 C62.76761719 32.16054687 62.76761719 32.16054687 61.3828125 32.515625 C58.89852458 33.36004833 58.89852458 33.36004833 57.69140625 35.44140625 C55.004214 43.68516551 57.44769142 54.97212903 58 63.5625 C55.525 64.0575 55.525 64.0575 53 64.5625 C52.01 59.6125 52.01 59.6125 51 54.5625 C50.278125 55.325625 49.55625 56.08875 48.8125 56.875 C42.66718306 62.74719174 37.37070348 63.94203643 29.0703125 63.83203125 C21.39391616 63.15814913 17.1677486 59.18527225 12.34765625 53.46484375 C9.33432085 49.21123697 9.62351788 44.5618324 10 39.5625 C11 36.5 11 36.5 12 34.5625 C10.01432292 34.59505208 8.02864583 34.62760417 6.04296875 34.66015625 C4 34.5625 4 34.5625 1 33.5625 C1.03029297 34.11599121 1.06058594 34.66948242 1.09179688 35.23974609 C1.23063182 37.80552269 1.36533058 40.37150152 1.5 42.9375 C1.54769531 43.80761719 1.59539063 44.67773438 1.64453125 45.57421875 C1.87822821 50.08123151 2.06532288 54.58930403 2.15625 59.1015625 C2.17494141 59.91061035 2.19363281 60.7196582 2.21289062 61.55322266 C2 63.5625 2 63.5625 0 65.5625 C-3.53571429 65.02678571 -3.53571429 65.02678571 -5 63.5625 C-5.16124593 60.62268559 -5.26005554 57.70416295 -5.31640625 54.76171875 C-5.33718735 53.85613724 -5.35796844 52.95055573 -5.37937927 52.01753235 C-5.42278235 50.08310893 -5.46380636 48.14863095 -5.50268555 46.21411133 C-5.56092311 43.32814288 -5.62642186 40.44241884 -5.69335938 37.55664062 C-5.96756646 25.22368961 -6.05303695 12.8982215 -6 0.5625 C-3.58311906 -0.64594047 -2.6398999 -0.38184266 0 0 Z M0 9.5625 C-1.07350805 14.93004023 -1.4229379 21.59481629 1.00390625 26.65625 C3.86138486 29.45674186 7.18870396 29.9062247 11 30.125 C15.64631995 29.88708603 18.44527282 28.67288629 22 25.5625 C24.47448571 21.85077144 24.66022291 18.86617527 24 14.5625 C21.77864953 10.2020713 19.59457298 7.36037638 15 5.5625 C8.77147126 4.72997388 4.47110495 4.67638881 0 9.5625 Z M18.125 35.75 C15.23222748 39.57866951 15.07595911 41.77707582 15 46.5625 C15.78785353 48.9862259 15.78785353 48.9862259 17 50.5625 C25.56707648 47.49721575 33.23943203 41.57189375 40 35.5625 C39.67 34.5725 39.34 33.5825 39 32.5625 C30.7412591 29.6018193 25.14144057 30.41140391 18.125 35.75 Z " fill="#000000" transform="translate(16,8.4375)"/>
<path d="M0 0 C1.94506836 1.40869141 1.94506836 1.40869141 2.70068359 3.83691406 C2.8212915 4.86349121 2.94189941 5.89006836 3.06616211 6.94775391 C3.2129541 8.11854492 3.35974609 9.28933594 3.51098633 10.49560547 C3.6542334 11.78692383 3.79748047 13.07824219 3.94506836 14.40869141 C4.11272896 15.78879077 4.28220654 17.16867043 4.45336914 18.54833984 C4.99473512 22.95751175 5.50288164 27.37019408 6.00756836 31.78369141 C6.26835165 34.04962457 6.52985253 36.31547125 6.79234314 38.58120728 C7.02834488 40.6203808 7.26228621 42.65979248 7.49609375 44.69921875 C7.80058682 47.21497066 8.13467643 49.7272835 8.49536133 52.2355957 C9.03341305 56.03204428 9.01221326 59.58143221 8.94506836 63.40869141 C7.29506836 63.40869141 5.64506836 63.40869141 3.94506836 63.40869141 C2.29407664 58.13207814 1.35785724 53.01960483 0.69116211 47.53759766 C0.58538345 46.69760727 0.4796048 45.85761688 0.37062073 44.99217224 C0.14867523 43.21834341 -0.07051926 41.44416843 -0.28710938 39.66967773 C-0.61275668 37.00938236 -0.94936195 34.3506463 -1.28735352 31.69189453 C-2.59035183 21.27118644 -3.5522616 10.90019923 -4.05493164 0.40869141 C-2.05493164 -0.59130859 -2.05493164 -0.59130859 0 0 Z " fill="#000000" transform="translate(199.054931640625,11.59130859375)"/>
<path d="M0 0 C5.59116022 0.88950276 5.59116022 0.88950276 8.3125 1.625 C9.1478125 1.810625 9.1478125 1.810625 10 2 C10.33 1.67 10.66 1.34 11 1 C12.85287502 0.92773498 14.70833878 0.9161878 16.5625 0.9375 C17.57441406 0.94652344 18.58632813 0.95554688 19.62890625 0.96484375 C20.80259766 0.98224609 20.80259766 0.98224609 22 1 C22 2.98 22 4.96 22 7 C20.72125 7.12375 19.4425 7.2475 18.125 7.375 C14.65209064 7.69042399 14.65209064 7.69042399 12 10 C12.1304759 12.80463764 12.1304759 12.80463764 12.75 16 C12.94851563 17.16660156 13.14703125 18.33320312 13.3515625 19.53515625 C13.90854342 22.51131334 14.50263674 25.47450969 15.125 28.4375 C15.87258823 32.01774674 16.19334687 35.32640953 16 39 C14.35 38.67 12.7 38.34 11 38 C9.59207205 34.23476149 8.6445019 30.48919302 7.8515625 26.55859375 C7.65046875 25.56279297 7.449375 24.56699219 7.2421875 23.54101562 C6.83027583 21.46972563 6.4266419 19.39677248 6.03125 17.32226562 C4.89542336 11.77612479 3.86972365 8.28962984 0 4 C0 2.68 0 1.36 0 0 Z " fill="#000000" transform="translate(430,42)"/>
</svg>
