<?xml version="1.0" encoding="UTF-8"?>
<svg version="1.1" xmlns="http://www.w3.org/2000/svg" width="260" height="59">
<path d="M0 0 C6.27 0 12.54 0 19 0 C18.44882678 7.16525187 17.56020756 13.99259378 16 21 C15.6600633 22.54294827 15.3202289 24.08591909 14.98046875 25.62890625 C13.99556526 30.0878807 12.99985065 34.54435486 12 39 C15.96 39 19.92 39 24 39 C24 38.34 24 37.68 24 37 C23.030625 36.175 22.06125 35.35 21.0625 34.5 C17.6330026 31.15989708 17.0140002 28.30400556 16.84375 23.59375 C17.15135126 18.48756903 17.903466 14.05725467 21.66796875 10.36328125 C26.35004512 7.10171508 31.285386 5.5043447 37 6 C43.20728556 7.75736065 49.60070986 11.22379765 53.13671875 16.7890625 C55.0305232 21.63925852 55.13095118 28.20463011 53.171875 33.046875 C51.68995386 35.28081582 49.89131241 37.10868759 48 39 C51.3 39.33 54.6 39.66 58 40 C57.484375 39.34 56.96875 38.68 56.4375 38 C54.52203698 34.00251195 55.13096319 31.177814 56 27 C56.24621094 25.80246094 56.49242188 24.60492187 56.74609375 23.37109375 C57.47624117 19.90900716 58.22885996 16.45315541 59 13 C56.69 13 54.38 13 52 13 C51.375 11.125 51.375 11.125 51 9 C53 7 53 7 56.625 6.875 C58.295625 6.936875 58.295625 6.936875 60 7 C60.33 5.35 60.66 3.7 61 2 C62.65 2 64.3 2 66 2 C66.495 4.475 66.495 4.475 67 7 C70.63 7 74.26 7 78 7 C78.33 5.68 78.66 4.36 79 3 C80.65 3 82.3 3 84 3 C84 4.32 84 5.64 84 7 C86.31 7 88.62 7 91 7 C91.38218767 8.65614657 91.71395102 10.32457024 92 12 C90.03177114 13.96822886 86.65191291 13.66248381 84 14 C83.49219106 16.20655075 82.99408635 18.41533605 82.5 20.625 C82.2215625 21.85476562 81.943125 23.08453125 81.65625 24.3515625 C81.05908379 27.67152228 80.87590466 30.63908451 81 34 C82.98 34.495 82.98 34.495 85 35 C85.66 34.01 86.32 33.02 87 32 C88.98 32.33 90.96 32.66 93 33 C92.125 37.75 92.125 37.75 91 40 C91.66 39.67 92.32 39.34 93 39 C93.75832312 35.89727998 93.75832312 35.89727998 94.2890625 32.12109375 C94.45128799 31.09110008 94.45128799 31.09110008 94.61679077 30.04029846 C94.96126835 27.84057737 95.29325089 25.6391731 95.625 23.4375 C95.85595221 21.94844051 96.08771262 20.45950613 96.3203125 18.97070312 C96.88960374 15.31520899 97.44770225 11.65810469 98 8 C101.65880878 7.22498518 105.00398837 6.86487564 108.75 6.875 C110.19632813 6.87113281 110.19632813 6.87113281 111.671875 6.8671875 C114 7 114 7 115 8 C115.04063832 9.66617115 115.042721 11.33388095 115 13 C114.37351562 13.18175781 113.74703125 13.36351562 113.1015625 13.55078125 C112.28429687 13.80214844 111.46703125 14.05351562 110.625 14.3125 C109.81289062 14.55613281 109.00078125 14.79976562 108.1640625 15.05078125 C105.66815371 15.91368185 105.66815371 15.91368185 104 19 C103.45642729 21.11841588 103.45642729 21.11841588 103.1484375 23.44921875 C103.03161621 24.21322998 102.91479492 24.97724121 102.79443359 25.7644043 C102.58681396 27.21133667 102.58681396 27.21133667 102.375 28.6875 C101.92125 31.760625 101.4675 34.83375 101 38 C107.93 38 114.86 38 122 38 C120.35 36.68 118.7 35.36 117 34 C113.27743588 28.92280653 112.29065845 24.18140495 113 18 C114.67686536 14.3108962 116.95684399 11.66276151 120 9 C125.24994134 7.25001955 131.15001163 6.86283576 136.359375 8.94140625 C141.71005405 12.14980215 145.52818693 16.2289449 148 22 C148.69380891 26.88893258 148.82064254 31.42404303 146 35.625 C145.01 36.800625 145.01 36.800625 144 38 C146.97 38.495 146.97 38.495 150 39 C150.07347656 38.13955078 150.07347656 38.13955078 150.1484375 37.26171875 C150.97865908 27.82868386 151.99501241 18.41566039 153 9 C160.57487522 7.34509831 167.39612563 6.85105036 174.30859375 10.7890625 C177.80767527 13.2941786 179.6550648 15.9651944 181 20 C180.93730557 22.66451315 180.81515947 25.28239836 180.625 27.9375 C180.55925781 29.01161133 180.55925781 29.01161133 180.4921875 30.10742188 C180.26594385 33.49793439 180.00357444 36.74263551 179 40 C179.66 39.67 180.32 39.34 181 39 C181.66273249 35.99300183 181.66273249 35.99300183 182.0703125 32.33984375 C182.15626678 31.67537735 182.24222107 31.01091095 182.33078003 30.3263092 C182.6041217 28.19769804 182.86468269 26.06773935 183.125 23.9375 C183.30775606 22.49663829 183.49133914 21.05588122 183.67578125 19.61523438 C184.1268006 16.0779882 184.56636919 12.53942473 185 9 C186.98 9 188.96 9 191 9 C190.5297887 16.79350219 190.04945876 24.58664006 189.5 32.375 C189.4278125 33.41398437 189.355625 34.45296875 189.28125 35.5234375 C189 38 189 38 188 40 C191.63 39.67 195.26 39.34 199 39 C198.21625 38.113125 197.4325 37.22625 196.625 36.3125 C192.8721835 31.75171168 191.56099365 28.02140471 191.75390625 21.984375 C192.32921178 17.34540346 194.52184912 14.53646196 197.5625 11.125 C200.99885014 8.49870758 204.21760305 8.29966377 208.453125 8.4921875 C212.60564996 9.32014493 215.70314363 11.42145312 219 14 C218.67 15.32 218.34 16.64 218 18 C213.25 17.125 213.25 17.125 211 16 C205.98878616 15.51274751 205.98878616 15.51274751 201.625 17.6875 C199.74453205 20.36355054 199.0762209 21.72250127 199 25 C200.163279 28.55106222 201.24900814 31.1972156 203.8125 33.9375 C206.84434326 35.41010958 208.66670553 35.54421134 212 35 C212.845625 34.154375 213.69125 33.30875 214.5625 32.4375 C215.366875 31.633125 216.17125 30.82875 217 30 C219.8125 30.1875 219.8125 30.1875 222 31 C222.33 31.99 222.66 32.98 223 34 C221.0625 37.1875 221.0625 37.1875 219 40 C223.455 39.505 223.455 39.505 228 39 C226.02 37.02 226.02 37.02 224 35 C224.66 33.68 225.32 32.36 226 31 C229.875 32.875 229.875 32.875 231 34 C232.99958364 34.04080783 235.00045254 34.04254356 237 34 C237.12213894 31.65851769 237.12213894 31.65851769 236 29 C234.06390042 27.55009583 232.03781813 26.38703451 229.9453125 25.17578125 C227.52355832 23.71203023 226.21282118 22.577245 225 20 C224.50601791 16.0481433 224.3914431 13.91283535 226.625 10.5625 C229.81816869 8.46173112 231.22138181 8.34600839 235 9 C237.93070435 10.33839025 240.67188856 11.75461333 243 14 C243 15.32 243 16.64 243 18 C239.28400809 18.20086443 238.22791555 18.1519437 235 16 C232.84725052 16.30840599 232.84725052 16.30840599 231 17 C231 17.99 231 18.98 231 20 C231.886875 20.2475 232.77375 20.495 233.6875 20.75 C237.83538855 22.31524096 240.75103567 24.21576525 243.3125 27.875 C244.22986106 30.71047964 244.25205145 33.03839547 244 36 C243.34 36.99 242.68 37.98 242 39 C242.99 39.66 243.98 40.32 245 41 C244.67 42.65 244.34 44.3 244 46 C243.07882228 45.99907821 242.15764456 45.99815641 241.20855236 45.99720669 C218.62250777 45.97496276 196.0364651 45.95849757 173.4504118 45.94818783 C162.52723989 45.9430675 151.60407536 45.93610785 140.6809082 45.92456055 C131.14200342 45.91448155 121.60310399 45.90811573 112.06419402 45.90591151 C107.03005516 45.90462642 101.99593159 45.90168487 96.96179771 45.89426994 C75.01658481 45.86318093 53.10723256 46.03573756 31.17346191 46.77514648 C22.38461182 47.06944728 13.60501772 47.11880101 4.8125 47.0625 C3.33398603 47.0574338 1.85547022 47.05288063 0.37695312 47.04882812 C-3.08207289 47.03831948 -6.54102182 47.02139438 -10 47 C-11.29867527 42.80002891 -10.40970021 40.15490587 -9 36 C-8.67588135 35.40977051 -8.3517627 34.81954102 -8.01782227 34.21142578 C-6.65216526 31.24425831 -6.14218923 28.32384643 -5.52734375 25.1171875 C-5.3353817 24.13397018 -5.3353817 24.13397018 -5.13954163 23.13088989 C-4.7333328 21.04661905 -4.33490699 18.96096545 -3.9375 16.875 C-3.53550265 14.78211481 -3.13181529 12.68959168 -2.7247467 10.59768677 C-2.35691259 8.70501436 -1.99460539 6.81127031 -1.63256836 4.91748047 C-1 2 -1 2 0 0 Z M26 17 C23.6234677 20.56479845 23.434045 21.79576285 24 26 C25.74545136 29.33791494 27.85875626 32.09487565 30.8125 34.4375 C34.99614816 35.51329524 39.19210903 35.58634302 43.3125 34.25 C45.53047782 32.60705347 46.69877465 31.47232816 48 29 C48.60440055 24.90350738 48.94035801 22.50112196 46.72265625 18.9609375 C43.14980711 14.59134215 43.14980711 14.59134215 38.01171875 12.76171875 C32.67937613 12.59144226 29.84239287 12.92473484 26 17 Z M65 13 C64.46775449 15.72738235 63.94892004 18.45620434 63.4375 21.1875 C63.28603516 21.95642578 63.13457031 22.72535156 62.97851562 23.51757812 C62.21831237 27.636819 61.75770082 30.89465369 63 35 C64.32 35 65.64 35 67 35 C67.33 34.34 67.66 33.68 68 33 C70.5625 32.375 70.5625 32.375 73 32 C73 34.31 73 36.62 73 39 C74.32 38.67 75.64 38.34 77 38 C76.649375 37.195625 76.29875 36.39125 75.9375 35.5625 C74.74855216 31.04449819 75.30624637 27.55788677 76 23 C76.21746163 21.33449978 76.42613401 19.66782279 76.625 18 C76.76808594 16.88625 76.76808594 16.88625 76.9140625 15.75 C76.94242188 15.1725 76.97078125 14.595 77 14 C75.94021067 12.71387324 75.94021067 12.71387324 73.49609375 12.90234375 C72.48675781 12.91394531 71.47742188 12.92554688 70.4375 12.9375 C69.42558594 12.94652344 68.41367188 12.95554687 67.37109375 12.96484375 C66.58863281 12.97644531 65.80617188 12.98804688 65 13 Z M120 19 C118.74248595 21.5150281 119.15960175 22.3344065 119.875 25 C120.05804688 25.70125 120.24109375 26.4025 120.4296875 27.125 C120.9623743 29.06439707 120.9623743 29.06439707 122 31 C122.66 31 123.32 31 124 31 C124.33 31.99 124.66 32.98 125 34 C129.16521578 36.45012693 132.39728115 36.15067971 137 35 C140.641423 32.72802217 140.641423 32.72802217 142.703125 29.11328125 C143.22989211 25.36353116 141.76435785 22.26708088 140 19 C135.81503926 15.01918369 132.88000443 13.59814542 127.0390625 13.640625 C123.61993302 14.2432302 122.06810948 16.36786067 120 19 Z M160.859375 15.1875 C156.7694222 19.17434474 157.07037034 25.96395154 156.8828125 31.390625 C156.87600397 34.26382629 156.90979128 37.12835567 157 40 C159.47923801 40.02685095 161.9581884 40.04676547 164.4375 40.0625 C165.49807617 40.07506836 165.49807617 40.07506836 166.58007812 40.08789062 C168.38693559 40.09653588 170.19387603 40.05220011 172 40 C174.97805789 37.02194211 174.19004986 29.20029196 174.3125 25.3125 C174.34988281 24.21550781 174.38726562 23.11851563 174.42578125 21.98828125 C173.90195754 18.31190383 172.92641024 17.21429976 170 15 C165.29905352 13.69235057 165.29905352 13.69235057 160.859375 15.1875 Z " fill="#000000" transform="translate(15,6)"/>
</svg>
